<?xml version="1.0" encoding="utf-8" standalone="no"?>
<!DOCTYPE svg PUBLIC "-//W3C//DTD SVG 1.1//EN"
  "http://www.w3.org/Graphics/SVG/1.1/DTD/svg11.dtd">
<svg xmlns:xlink="http://www.w3.org/1999/xlink" width="395.475937pt" height="211.295938pt" viewBox="0 0 395.475937 211.295938" xmlns="http://www.w3.org/2000/svg" version="1.1">
 <metadata>
  <rdf:RDF xmlns:dc="http://purl.org/dc/elements/1.1/" xmlns:cc="http://creativecommons.org/ns#" xmlns:rdf="http://www.w3.org/1999/02/22-rdf-syntax-ns#">
   <cc:Work>
    <dc:type rdf:resource="http://purl.org/dc/dcmitype/StillImage"/>
    <dc:date>2024-10-24T17:45:11.439661</dc:date>
    <dc:format>image/svg+xml</dc:format>
    <dc:creator>
     <cc:Agent>
      <dc:title>Matplotlib v3.9.2, https://matplotlib.org/</dc:title>
     </cc:Agent>
    </dc:creator>
   </cc:Work>
  </rdf:RDF>
 </metadata>
 <defs>
  <style type="text/css">*{stroke-linejoin: round; stroke-linecap: butt}</style>
 </defs>
 <g id="figure_1">
  <g id="patch_1">
   <path d="M 0 211.295938 
L 395.475937 211.295938 
L 395.475937 0 
L 0 0 
z
" style="fill: #ffffff"/>
  </g>
  <g id="axes_1">
   <g id="patch_2">
    <path d="M 47.915 173.52 
L 382.715 173.52 
L 382.715 7.2 
L 47.915 7.2 
z
" style="fill: #eaeaf2"/>
   </g>
   <g id="matplotlib.axis_1">
    <g id="xtick_1">
     <g id="line2d_1">
      <path d="M 47.915 173.52 
L 47.915 7.2 
" clip-path="url(#p7600d15463)" style="fill: none; stroke: #ffffff; stroke-linecap: round"/>
     </g>
     <g id="line2d_2"/>
     <g id="text_1">
      <!-- 0 -->
      <g style="fill: #262626" transform="translate(45.134531 187.766875) scale(0.1 -0.1)">
       <defs>
        <path id="LiberationSans-30" d="M 3309 2203 
Q 3309 1569 3189 1136 
Q 3069 703 2861 436 
Q 2653 169 2372 53 
Q 2091 -63 1772 -63 
Q 1450 -63 1172 53 
Q 894 169 689 434 
Q 484 700 367 1133 
Q 250 1566 250 2203 
Q 250 2869 367 3305 
Q 484 3741 690 4000 
Q 897 4259 1178 4364 
Q 1459 4469 1791 4469 
Q 2106 4469 2382 4364 
Q 2659 4259 2865 4000 
Q 3072 3741 3190 3305 
Q 3309 2869 3309 2203 
z
M 2738 2203 
Q 2738 2728 2675 3076 
Q 2613 3425 2491 3633 
Q 2369 3841 2192 3927 
Q 2016 4013 1791 4013 
Q 1553 4013 1372 3925 
Q 1191 3838 1067 3630 
Q 944 3422 881 3073 
Q 819 2725 819 2203 
Q 819 1697 883 1350 
Q 947 1003 1070 792 
Q 1194 581 1372 489 
Q 1550 397 1778 397 
Q 2000 397 2178 489 
Q 2356 581 2479 792 
Q 2603 1003 2670 1350 
Q 2738 1697 2738 2203 
z
" transform="scale(0.015625)"/>
       </defs>
       <use xlink:href="#LiberationSans-30"/>
      </g>
     </g>
    </g>
    <g id="xtick_2">
     <g id="line2d_3">
      <path d="M 114.875 173.52 
L 114.875 7.2 
" clip-path="url(#p7600d15463)" style="fill: none; stroke: #ffffff; stroke-linecap: round"/>
     </g>
     <g id="line2d_4"/>
     <g id="text_2">
      <!-- 5 -->
      <g style="fill: #262626" transform="translate(112.094531 187.766875) scale(0.1 -0.1)">
       <defs>
        <path id="LiberationSans-35" d="M 3291 1434 
Q 3291 1103 3191 828 
Q 3091 553 2894 354 
Q 2697 156 2405 46 
Q 2113 -63 1728 -63 
Q 1381 -63 1123 18 
Q 866 100 687 242 
Q 509 384 404 575 
Q 300 766 256 984 
L 825 1050 
Q 859 925 921 808 
Q 984 691 1092 598 
Q 1200 506 1358 451 
Q 1516 397 1741 397 
Q 1959 397 2137 464 
Q 2316 531 2442 662 
Q 2569 794 2637 984 
Q 2706 1175 2706 1422 
Q 2706 1625 2640 1795 
Q 2575 1966 2453 2089 
Q 2331 2213 2154 2281 
Q 1978 2350 1753 2350 
Q 1613 2350 1494 2325 
Q 1375 2300 1273 2256 
Q 1172 2213 1089 2155 
Q 1006 2097 934 2034 
L 384 2034 
L 531 4403 
L 3034 4403 
L 3034 3925 
L 1044 3925 
L 959 2528 
Q 1109 2644 1334 2726 
Q 1559 2809 1869 2809 
Q 2197 2809 2459 2709 
Q 2722 2609 2906 2426 
Q 3091 2244 3191 1991 
Q 3291 1738 3291 1434 
z
" transform="scale(0.015625)"/>
       </defs>
       <use xlink:href="#LiberationSans-35"/>
      </g>
     </g>
    </g>
    <g id="xtick_3">
     <g id="line2d_5">
      <path d="M 181.835 173.52 
L 181.835 7.2 
" clip-path="url(#p7600d15463)" style="fill: none; stroke: #ffffff; stroke-linecap: round"/>
     </g>
     <g id="line2d_6"/>
     <g id="text_3">
      <!-- 10 -->
      <g style="fill: #262626" transform="translate(176.274063 187.766875) scale(0.1 -0.1)">
       <defs>
        <path id="LiberationSans-31" d="M 488 0 
L 488 478 
L 1609 478 
L 1609 3866 
L 616 3156 
L 616 3688 
L 1656 4403 
L 2175 4403 
L 2175 478 
L 3247 478 
L 3247 0 
L 488 0 
z
" transform="scale(0.015625)"/>
       </defs>
       <use xlink:href="#LiberationSans-31"/>
       <use xlink:href="#LiberationSans-30" x="55.615234"/>
      </g>
     </g>
    </g>
    <g id="xtick_4">
     <g id="line2d_7">
      <path d="M 248.795 173.52 
L 248.795 7.2 
" clip-path="url(#p7600d15463)" style="fill: none; stroke: #ffffff; stroke-linecap: round"/>
     </g>
     <g id="line2d_8"/>
     <g id="text_4">
      <!-- 15 -->
      <g style="fill: #262626" transform="translate(243.234063 187.766875) scale(0.1 -0.1)">
       <use xlink:href="#LiberationSans-31"/>
       <use xlink:href="#LiberationSans-35" x="55.615234"/>
      </g>
     </g>
    </g>
    <g id="xtick_5">
     <g id="line2d_9">
      <path d="M 315.755 173.52 
L 315.755 7.2 
" clip-path="url(#p7600d15463)" style="fill: none; stroke: #ffffff; stroke-linecap: round"/>
     </g>
     <g id="line2d_10"/>
     <g id="text_5">
      <!-- 20 -->
      <g style="fill: #262626" transform="translate(310.194063 187.766875) scale(0.1 -0.1)">
       <defs>
        <path id="LiberationSans-32" d="M 322 0 
L 322 397 
Q 481 763 711 1042 
Q 941 1322 1194 1548 
Q 1447 1775 1695 1969 
Q 1944 2163 2144 2356 
Q 2344 2550 2467 2762 
Q 2591 2975 2591 3244 
Q 2591 3431 2534 3573 
Q 2478 3716 2372 3812 
Q 2266 3909 2117 3957 
Q 1969 4006 1788 4006 
Q 1619 4006 1470 3959 
Q 1322 3913 1206 3819 
Q 1091 3725 1017 3586 
Q 944 3447 922 3263 
L 347 3316 
Q 375 3553 478 3762 
Q 581 3972 762 4130 
Q 944 4288 1198 4378 
Q 1453 4469 1788 4469 
Q 2116 4469 2372 4391 
Q 2628 4313 2804 4159 
Q 2981 4006 3075 3781 
Q 3169 3556 3169 3263 
Q 3169 3041 3089 2841 
Q 3009 2641 2876 2459 
Q 2744 2278 2569 2109 
Q 2394 1941 2203 1780 
Q 2013 1619 1819 1461 
Q 1625 1303 1454 1143 
Q 1284 984 1150 820 
Q 1016 656 941 478 
L 3238 478 
L 3238 0 
L 322 0 
z
" transform="scale(0.015625)"/>
       </defs>
       <use xlink:href="#LiberationSans-32"/>
       <use xlink:href="#LiberationSans-30" x="55.615234"/>
      </g>
     </g>
    </g>
    <g id="xtick_6">
     <g id="line2d_11">
      <path d="M 382.715 173.52 
L 382.715 7.2 
" clip-path="url(#p7600d15463)" style="fill: none; stroke: #ffffff; stroke-linecap: round"/>
     </g>
     <g id="line2d_12"/>
     <g id="text_6">
      <!-- 25 -->
      <g style="fill: #262626" transform="translate(377.154063 187.766875) scale(0.1 -0.1)">
       <use xlink:href="#LiberationSans-32"/>
       <use xlink:href="#LiberationSans-35" x="55.615234"/>
      </g>
     </g>
    </g>
    <g id="text_7">
     <!-- Photon number -->
     <g style="fill: #262626" transform="translate(177.709609 201.813438) scale(0.11 -0.11)">
      <defs>
       <path id="LiberationSans-50" d="M 3931 3078 
Q 3931 2791 3836 2542 
Q 3741 2294 3552 2111 
Q 3363 1928 3078 1822 
Q 2794 1716 2416 1716 
L 1122 1716 
L 1122 0 
L 525 0 
L 525 4403 
L 2378 4403 
Q 2769 4403 3059 4308 
Q 3350 4213 3544 4039 
Q 3738 3866 3834 3620 
Q 3931 3375 3931 3078 
z
M 3331 3072 
Q 3331 3491 3075 3708 
Q 2819 3925 2306 3925 
L 1122 3925 
L 1122 2188 
L 2331 2188 
Q 2847 2188 3089 2416 
Q 3331 2644 3331 3072 
z
" transform="scale(0.015625)"/>
       <path id="LiberationSans-68" d="M 991 2803 
Q 1084 2975 1193 3095 
Q 1303 3216 1434 3294 
Q 1566 3372 1722 3408 
Q 1878 3444 2072 3444 
Q 2397 3444 2605 3356 
Q 2813 3269 2933 3111 
Q 3053 2953 3098 2734 
Q 3144 2516 3144 2253 
L 3144 0 
L 2578 0 
L 2578 2144 
Q 2578 2359 2551 2521 
Q 2525 2684 2450 2792 
Q 2375 2900 2237 2954 
Q 2100 3009 1881 3009 
Q 1681 3009 1520 2937 
Q 1359 2866 1245 2734 
Q 1131 2603 1068 2415 
Q 1006 2228 1006 1994 
L 1006 0 
L 444 0 
L 444 4638 
L 1006 4638 
L 1006 3431 
Q 1006 3328 1003 3225 
Q 1000 3122 995 3034 
Q 991 2947 987 2886 
Q 984 2825 981 2803 
L 991 2803 
z
" transform="scale(0.015625)"/>
       <path id="LiberationSans-6f" d="M 3291 1694 
Q 3291 806 2900 371 
Q 2509 -63 1766 -63 
Q 1413 -63 1134 43 
Q 856 150 664 369 
Q 472 588 370 917 
Q 269 1247 269 1694 
Q 269 3444 1784 3444 
Q 2178 3444 2464 3334 
Q 2750 3225 2933 3006 
Q 3116 2788 3203 2459 
Q 3291 2131 3291 1694 
z
M 2700 1694 
Q 2700 2088 2639 2344 
Q 2578 2600 2461 2753 
Q 2344 2906 2175 2967 
Q 2006 3028 1794 3028 
Q 1578 3028 1404 2964 
Q 1231 2900 1109 2745 
Q 988 2591 923 2334 
Q 859 2078 859 1694 
Q 859 1300 928 1042 
Q 997 784 1117 631 
Q 1238 478 1402 415 
Q 1566 353 1759 353 
Q 1975 353 2150 414 
Q 2325 475 2447 628 
Q 2569 781 2634 1040 
Q 2700 1300 2700 1694 
z
" transform="scale(0.015625)"/>
       <path id="LiberationSans-74" d="M 1731 25 
Q 1603 -9 1470 -29 
Q 1338 -50 1163 -50 
Q 488 -50 488 716 
L 488 2972 
L 97 2972 
L 97 3381 
L 509 3381 
L 675 4138 
L 1050 4138 
L 1050 3381 
L 1675 3381 
L 1675 2972 
L 1050 2972 
L 1050 838 
Q 1050 594 1129 495 
Q 1209 397 1406 397 
Q 1488 397 1564 409 
Q 1641 422 1731 441 
L 1731 25 
z
" transform="scale(0.015625)"/>
       <path id="LiberationSans-6e" d="M 2578 0 
L 2578 2144 
Q 2578 2391 2542 2556 
Q 2506 2722 2425 2823 
Q 2344 2925 2211 2967 
Q 2078 3009 1881 3009 
Q 1681 3009 1520 2939 
Q 1359 2869 1245 2736 
Q 1131 2603 1068 2408 
Q 1006 2213 1006 1959 
L 1006 0 
L 444 0 
L 444 2659 
Q 444 2766 442 2883 
Q 441 3000 437 3104 
Q 434 3209 431 3284 
Q 428 3359 425 3381 
L 956 3381 
Q 959 3366 962 3297 
Q 966 3228 970 3139 
Q 975 3050 978 2958 
Q 981 2866 981 2803 
L 991 2803 
Q 1072 2950 1169 3069 
Q 1266 3188 1394 3270 
Q 1522 3353 1687 3398 
Q 1853 3444 2072 3444 
Q 2353 3444 2556 3375 
Q 2759 3306 2890 3162 
Q 3022 3019 3083 2792 
Q 3144 2566 3144 2253 
L 3144 0 
L 2578 0 
z
" transform="scale(0.015625)"/>
       <path id="LiberationSans-20" transform="scale(0.015625)"/>
       <path id="LiberationSans-75" d="M 981 3381 
L 981 1238 
Q 981 991 1017 825 
Q 1053 659 1134 557 
Q 1216 456 1348 414 
Q 1481 372 1678 372 
Q 1878 372 2039 442 
Q 2200 513 2314 645 
Q 2428 778 2490 973 
Q 2553 1169 2553 1422 
L 2553 3381 
L 3116 3381 
L 3116 722 
Q 3116 616 3117 498 
Q 3119 381 3122 276 
Q 3125 172 3128 97 
Q 3131 22 3134 0 
L 2603 0 
Q 2600 16 2597 84 
Q 2594 153 2589 242 
Q 2584 331 2581 423 
Q 2578 516 2578 578 
L 2569 578 
Q 2488 431 2391 312 
Q 2294 194 2166 111 
Q 2038 28 1872 -17 
Q 1706 -63 1488 -63 
Q 1206 -63 1003 6 
Q 800 75 669 219 
Q 538 363 477 588 
Q 416 813 416 1128 
L 416 3381 
L 981 3381 
z
" transform="scale(0.015625)"/>
       <path id="LiberationSans-6d" d="M 2400 0 
L 2400 2144 
Q 2400 2391 2369 2556 
Q 2338 2722 2264 2823 
Q 2191 2925 2072 2967 
Q 1953 3009 1781 3009 
Q 1603 3009 1459 2939 
Q 1316 2869 1214 2736 
Q 1113 2603 1058 2408 
Q 1003 2213 1003 1959 
L 1003 0 
L 444 0 
L 444 2659 
Q 444 2766 442 2883 
Q 441 3000 437 3104 
Q 434 3209 431 3284 
Q 428 3359 425 3381 
L 956 3381 
Q 959 3366 962 3297 
Q 966 3228 970 3139 
Q 975 3050 978 2958 
Q 981 2866 981 2803 
L 991 2803 
Q 1066 2950 1153 3069 
Q 1241 3188 1358 3270 
Q 1475 3353 1626 3398 
Q 1778 3444 1978 3444 
Q 2363 3444 2586 3291 
Q 2809 3138 2897 2803 
L 2906 2803 
Q 2981 2950 3075 3069 
Q 3169 3188 3294 3270 
Q 3419 3353 3575 3398 
Q 3731 3444 3931 3444 
Q 4188 3444 4373 3375 
Q 4559 3306 4678 3162 
Q 4797 3019 4853 2792 
Q 4909 2566 4909 2253 
L 4909 0 
L 4353 0 
L 4353 2144 
Q 4353 2391 4322 2556 
Q 4291 2722 4217 2823 
Q 4144 2925 4025 2967 
Q 3906 3009 3734 3009 
Q 3556 3009 3412 2942 
Q 3269 2875 3167 2744 
Q 3066 2613 3011 2416 
Q 2956 2219 2956 1959 
L 2956 0 
L 2400 0 
z
" transform="scale(0.015625)"/>
       <path id="LiberationSans-62" d="M 3291 1706 
Q 3291 -63 2047 -63 
Q 1663 -63 1408 76 
Q 1153 216 994 525 
L 988 525 
Q 988 444 983 356 
Q 978 269 973 194 
Q 969 119 964 66 
Q 959 13 956 0 
L 413 0 
Q 416 28 419 95 
Q 422 163 425 256 
Q 428 350 429 462 
Q 431 575 431 697 
L 431 4638 
L 994 4638 
L 994 3316 
Q 994 3222 992 3136 
Q 991 3050 988 2984 
Q 984 2906 981 2838 
L 994 2838 
Q 1150 3163 1408 3303 
Q 1666 3444 2047 3444 
Q 2688 3444 2989 3012 
Q 3291 2581 3291 1706 
z
M 2700 1688 
Q 2700 2038 2656 2288 
Q 2613 2538 2516 2698 
Q 2419 2859 2269 2934 
Q 2119 3009 1903 3009 
Q 1681 3009 1511 2937 
Q 1341 2866 1227 2706 
Q 1113 2547 1053 2287 
Q 994 2028 994 1653 
Q 994 1291 1053 1044 
Q 1113 797 1227 642 
Q 1341 488 1509 420 
Q 1678 353 1897 353 
Q 2103 353 2253 425 
Q 2403 497 2503 656 
Q 2603 816 2651 1070 
Q 2700 1325 2700 1688 
z
" transform="scale(0.015625)"/>
       <path id="LiberationSans-65" d="M 863 1572 
Q 863 1306 917 1082 
Q 972 859 1086 698 
Q 1200 538 1378 448 
Q 1556 359 1806 359 
Q 2172 359 2392 506 
Q 2613 653 2691 878 
L 3184 738 
Q 3131 597 3036 455 
Q 2941 313 2781 198 
Q 2622 84 2383 10 
Q 2144 -63 1806 -63 
Q 1056 -63 664 384 
Q 272 831 272 1713 
Q 272 2188 390 2517 
Q 509 2847 715 3053 
Q 922 3259 1197 3351 
Q 1472 3444 1784 3444 
Q 2209 3444 2495 3306 
Q 2781 3169 2954 2926 
Q 3128 2684 3201 2356 
Q 3275 2028 3275 1647 
L 3275 1572 
L 863 1572 
z
M 2694 2003 
Q 2647 2538 2422 2783 
Q 2197 3028 1775 3028 
Q 1634 3028 1479 2983 
Q 1325 2938 1194 2822 
Q 1063 2706 972 2507 
Q 881 2309 869 2003 
L 2694 2003 
z
" transform="scale(0.015625)"/>
       <path id="LiberationSans-72" d="M 444 0 
L 444 2594 
Q 444 2700 442 2811 
Q 441 2922 437 3025 
Q 434 3128 431 3218 
Q 428 3309 425 3381 
L 956 3381 
Q 959 3309 964 3217 
Q 969 3125 973 3028 
Q 978 2931 979 2842 
Q 981 2753 981 2691 
L 994 2691 
Q 1053 2884 1120 3026 
Q 1188 3169 1278 3261 
Q 1369 3353 1494 3398 
Q 1619 3444 1797 3444 
Q 1866 3444 1928 3433 
Q 1991 3422 2025 3413 
L 2025 2897 
Q 1969 2913 1894 2920 
Q 1819 2928 1725 2928 
Q 1531 2928 1395 2840 
Q 1259 2753 1173 2598 
Q 1088 2444 1047 2230 
Q 1006 2016 1006 1763 
L 1006 0 
L 444 0 
z
" transform="scale(0.015625)"/>
      </defs>
      <use xlink:href="#LiberationSans-50"/>
      <use xlink:href="#LiberationSans-68" x="66.699219"/>
      <use xlink:href="#LiberationSans-6f" x="122.314453"/>
      <use xlink:href="#LiberationSans-74" x="177.929688"/>
      <use xlink:href="#LiberationSans-6f" x="205.712891"/>
      <use xlink:href="#LiberationSans-6e" x="261.328125"/>
      <use xlink:href="#LiberationSans-20" x="316.943359"/>
      <use xlink:href="#LiberationSans-6e" x="344.726562"/>
      <use xlink:href="#LiberationSans-75" x="400.341797"/>
      <use xlink:href="#LiberationSans-6d" x="455.957031"/>
      <use xlink:href="#LiberationSans-62" x="539.257812"/>
      <use xlink:href="#LiberationSans-65" x="594.873047"/>
      <use xlink:href="#LiberationSans-72" x="650.488281"/>
     </g>
    </g>
   </g>
   <g id="matplotlib.axis_2">
    <g id="ytick_1">
     <g id="line2d_13">
      <path d="M 47.915 173.52 
L 382.715 173.52 
" clip-path="url(#p7600d15463)" style="fill: none; stroke: #ffffff; stroke-linecap: round"/>
     </g>
     <g id="line2d_14"/>
     <g id="text_8">
      <!-- 0.70 -->
      <g style="fill: #262626" transform="translate(21.454062 177.143437) scale(0.1 -0.1)">
       <defs>
        <path id="LiberationSans-2e" d="M 584 0 
L 584 684 
L 1194 684 
L 1194 0 
L 584 0 
z
" transform="scale(0.015625)"/>
        <path id="LiberationSans-37" d="M 3238 3947 
Q 2906 3441 2628 2973 
Q 2350 2506 2150 2032 
Q 1950 1559 1839 1061 
Q 1728 563 1728 0 
L 1141 0 
Q 1141 528 1266 1036 
Q 1391 1544 1603 2033 
Q 1816 2522 2097 2994 
Q 2378 3466 2694 3925 
L 328 3925 
L 328 4403 
L 3238 4403 
L 3238 3947 
z
" transform="scale(0.015625)"/>
       </defs>
       <use xlink:href="#LiberationSans-30"/>
       <use xlink:href="#LiberationSans-2e" x="55.615234"/>
       <use xlink:href="#LiberationSans-37" x="83.398438"/>
       <use xlink:href="#LiberationSans-30" x="139.013672"/>
      </g>
     </g>
    </g>
    <g id="ytick_2">
     <g id="line2d_15">
      <path d="M 47.915 146.694194 
L 382.715 146.694194 
" clip-path="url(#p7600d15463)" style="fill: none; stroke: #ffffff; stroke-linecap: round"/>
     </g>
     <g id="line2d_16"/>
     <g id="text_9">
      <!-- 0.75 -->
      <g style="fill: #262626" transform="translate(21.454062 150.317631) scale(0.1 -0.1)">
       <use xlink:href="#LiberationSans-30"/>
       <use xlink:href="#LiberationSans-2e" x="55.615234"/>
       <use xlink:href="#LiberationSans-37" x="83.398438"/>
       <use xlink:href="#LiberationSans-35" x="139.013672"/>
      </g>
     </g>
    </g>
    <g id="ytick_3">
     <g id="line2d_17">
      <path d="M 47.915 119.868387 
L 382.715 119.868387 
" clip-path="url(#p7600d15463)" style="fill: none; stroke: #ffffff; stroke-linecap: round"/>
     </g>
     <g id="line2d_18"/>
     <g id="text_10">
      <!-- 0.80 -->
      <g style="fill: #262626" transform="translate(21.454062 123.491825) scale(0.1 -0.1)">
       <defs>
        <path id="LiberationSans-38" d="M 3281 1228 
Q 3281 947 3192 711 
Q 3103 475 2920 303 
Q 2738 131 2453 34 
Q 2169 -63 1781 -63 
Q 1394 -63 1111 34 
Q 828 131 642 301 
Q 456 472 367 708 
Q 278 944 278 1222 
Q 278 1463 351 1650 
Q 425 1838 548 1973 
Q 672 2109 830 2192 
Q 988 2275 1156 2303 
L 1156 2316 
Q 972 2359 826 2456 
Q 681 2553 582 2689 
Q 484 2825 432 2990 
Q 381 3156 381 3341 
Q 381 3572 470 3776 
Q 559 3981 734 4136 
Q 909 4291 1168 4380 
Q 1428 4469 1769 4469 
Q 2128 4469 2392 4378 
Q 2656 4288 2829 4133 
Q 3003 3978 3087 3772 
Q 3172 3566 3172 3334 
Q 3172 3153 3120 2987 
Q 3069 2822 2970 2686 
Q 2872 2550 2726 2454 
Q 2581 2359 2391 2322 
L 2391 2309 
Q 2581 2278 2743 2195 
Q 2906 2113 3025 1977 
Q 3144 1841 3212 1653 
Q 3281 1466 3281 1228 
z
M 2588 3303 
Q 2588 3469 2545 3606 
Q 2503 3744 2406 3842 
Q 2309 3941 2153 3995 
Q 1997 4050 1769 4050 
Q 1547 4050 1394 3995 
Q 1241 3941 1142 3842 
Q 1044 3744 1000 3606 
Q 956 3469 956 3303 
Q 956 3172 990 3034 
Q 1025 2897 1115 2784 
Q 1206 2672 1365 2600 
Q 1525 2528 1775 2528 
Q 2041 2528 2202 2600 
Q 2363 2672 2448 2784 
Q 2534 2897 2561 3034 
Q 2588 3172 2588 3303 
z
M 2697 1281 
Q 2697 1441 2653 1589 
Q 2609 1738 2503 1852 
Q 2397 1966 2217 2036 
Q 2038 2106 1769 2106 
Q 1522 2106 1348 2036 
Q 1175 1966 1067 1850 
Q 959 1734 909 1582 
Q 859 1431 859 1269 
Q 859 1066 909 898 
Q 959 731 1068 611 
Q 1178 491 1356 425 
Q 1534 359 1788 359 
Q 2044 359 2219 425 
Q 2394 491 2500 611 
Q 2606 731 2651 901 
Q 2697 1072 2697 1281 
z
" transform="scale(0.015625)"/>
       </defs>
       <use xlink:href="#LiberationSans-30"/>
       <use xlink:href="#LiberationSans-2e" x="55.615234"/>
       <use xlink:href="#LiberationSans-38" x="83.398438"/>
       <use xlink:href="#LiberationSans-30" x="139.013672"/>
      </g>
     </g>
    </g>
    <g id="ytick_4">
     <g id="line2d_19">
      <path d="M 47.915 93.042581 
L 382.715 93.042581 
" clip-path="url(#p7600d15463)" style="fill: none; stroke: #ffffff; stroke-linecap: round"/>
     </g>
     <g id="line2d_20"/>
     <g id="text_11">
      <!-- 0.85 -->
      <g style="fill: #262626" transform="translate(21.454062 96.666018) scale(0.1 -0.1)">
       <use xlink:href="#LiberationSans-30"/>
       <use xlink:href="#LiberationSans-2e" x="55.615234"/>
       <use xlink:href="#LiberationSans-38" x="83.398438"/>
       <use xlink:href="#LiberationSans-35" x="139.013672"/>
      </g>
     </g>
    </g>
    <g id="ytick_5">
     <g id="line2d_21">
      <path d="M 47.915 66.216774 
L 382.715 66.216774 
" clip-path="url(#p7600d15463)" style="fill: none; stroke: #ffffff; stroke-linecap: round"/>
     </g>
     <g id="line2d_22"/>
     <g id="text_12">
      <!-- 0.90 -->
      <g style="fill: #262626" transform="translate(21.454062 69.840212) scale(0.1 -0.1)">
       <defs>
        <path id="LiberationSans-39" d="M 3256 2291 
Q 3256 1703 3145 1261 
Q 3034 819 2828 525 
Q 2622 231 2326 84 
Q 2031 -63 1663 -63 
Q 1409 -63 1206 -11 
Q 1003 41 843 150 
Q 684 259 571 434 
Q 459 609 391 856 
L 928 941 
Q 1016 656 1202 523 
Q 1388 391 1672 391 
Q 1900 391 2089 498 
Q 2278 606 2411 822 
Q 2544 1038 2619 1363 
Q 2694 1688 2700 2125 
Q 2634 1978 2520 1862 
Q 2406 1747 2261 1667 
Q 2116 1588 1947 1545 
Q 1778 1503 1606 1503 
Q 1306 1503 1064 1611 
Q 822 1719 653 1912 
Q 484 2106 392 2379 
Q 300 2653 300 2988 
Q 300 3328 398 3603 
Q 497 3878 684 4070 
Q 872 4263 1145 4366 
Q 1419 4469 1766 4469 
Q 2500 4469 2878 3925 
Q 3256 3381 3256 2291 
z
M 2644 2834 
Q 2644 3078 2586 3293 
Q 2528 3509 2414 3668 
Q 2300 3828 2133 3920 
Q 1966 4013 1747 4013 
Q 1544 4013 1381 3941 
Q 1219 3869 1106 3736 
Q 994 3603 933 3412 
Q 872 3222 872 2988 
Q 872 2766 926 2575 
Q 981 2384 1090 2245 
Q 1200 2106 1362 2026 
Q 1525 1947 1741 1947 
Q 1897 1947 2058 2000 
Q 2219 2053 2348 2162 
Q 2478 2272 2561 2439 
Q 2644 2606 2644 2834 
z
" transform="scale(0.015625)"/>
       </defs>
       <use xlink:href="#LiberationSans-30"/>
       <use xlink:href="#LiberationSans-2e" x="55.615234"/>
       <use xlink:href="#LiberationSans-39" x="83.398438"/>
       <use xlink:href="#LiberationSans-30" x="139.013672"/>
      </g>
     </g>
    </g>
    <g id="ytick_6">
     <g id="line2d_23">
      <path d="M 47.915 39.390968 
L 382.715 39.390968 
" clip-path="url(#p7600d15463)" style="fill: none; stroke: #ffffff; stroke-linecap: round"/>
     </g>
     <g id="line2d_24"/>
     <g id="text_13">
      <!-- 0.95 -->
      <g style="fill: #262626" transform="translate(21.454062 43.014405) scale(0.1 -0.1)">
       <use xlink:href="#LiberationSans-30"/>
       <use xlink:href="#LiberationSans-2e" x="55.615234"/>
       <use xlink:href="#LiberationSans-39" x="83.398438"/>
       <use xlink:href="#LiberationSans-35" x="139.013672"/>
      </g>
     </g>
    </g>
    <g id="ytick_7">
     <g id="line2d_25">
      <path d="M 47.915 12.565161 
L 382.715 12.565161 
" clip-path="url(#p7600d15463)" style="fill: none; stroke: #ffffff; stroke-linecap: round"/>
     </g>
     <g id="line2d_26"/>
     <g id="text_14">
      <!-- 1.00 -->
      <g style="fill: #262626" transform="translate(21.454062 16.188599) scale(0.1 -0.1)">
       <use xlink:href="#LiberationSans-31"/>
       <use xlink:href="#LiberationSans-2e" x="55.615234"/>
       <use xlink:href="#LiberationSans-30" x="83.398438"/>
       <use xlink:href="#LiberationSans-30" x="139.013672"/>
      </g>
     </g>
    </g>
    <g id="text_15">
     <!-- Confidence -->
     <g style="fill: #262626" transform="translate(15.171562 118.183125) rotate(-90) scale(0.11 -0.11)">
      <defs>
       <path id="LiberationSans-43" d="M 2475 3981 
Q 2100 3981 1811 3856 
Q 1522 3731 1326 3500 
Q 1131 3269 1031 2944 
Q 931 2619 931 2222 
Q 931 1825 1039 1495 
Q 1147 1166 1348 928 
Q 1550 691 1842 559 
Q 2134 428 2500 428 
Q 2756 428 2967 495 
Q 3178 563 3348 684 
Q 3519 806 3653 973 
Q 3788 1141 3891 1344 
L 4378 1100 
Q 4259 853 4084 640 
Q 3909 428 3673 272 
Q 3438 116 3139 26 
Q 2841 -63 2472 -63 
Q 1938 -63 1536 107 
Q 1134 278 864 583 
Q 594 888 459 1306 
Q 325 1725 325 2222 
Q 325 2738 467 3153 
Q 609 3569 882 3861 
Q 1156 4153 1556 4311 
Q 1956 4469 2469 4469 
Q 3172 4469 3644 4194 
Q 4116 3919 4338 3378 
L 3772 3191 
Q 3709 3347 3603 3489 
Q 3497 3631 3337 3740 
Q 3178 3850 2964 3915 
Q 2750 3981 2475 3981 
z
" transform="scale(0.015625)"/>
       <path id="LiberationSans-66" d="M 1128 2972 
L 1128 0 
L 566 0 
L 566 2972 
L 91 2972 
L 91 3381 
L 566 3381 
L 566 3763 
Q 566 3947 600 4105 
Q 634 4263 726 4380 
Q 819 4497 978 4564 
Q 1138 4631 1391 4631 
Q 1491 4631 1598 4622 
Q 1706 4613 1788 4594 
L 1788 4166 
Q 1734 4175 1664 4183 
Q 1594 4191 1538 4191 
Q 1413 4191 1333 4156 
Q 1253 4122 1208 4058 
Q 1163 3994 1145 3900 
Q 1128 3806 1128 3684 
L 1128 3381 
L 1788 3381 
L 1788 2972 
L 1128 2972 
z
" transform="scale(0.015625)"/>
       <path id="LiberationSans-69" d="M 428 4100 
L 428 4638 
L 991 4638 
L 991 4100 
L 428 4100 
z
M 428 0 
L 428 3381 
L 991 3381 
L 991 0 
L 428 0 
z
" transform="scale(0.015625)"/>
       <path id="LiberationSans-64" d="M 2566 544 
Q 2409 219 2151 78 
Q 1894 -63 1513 -63 
Q 872 -63 570 368 
Q 269 800 269 1675 
Q 269 3444 1513 3444 
Q 1897 3444 2153 3303 
Q 2409 3163 2566 2856 
L 2572 2856 
Q 2572 2888 2570 2955 
Q 2569 3022 2567 3095 
Q 2566 3169 2566 3234 
Q 2566 3300 2566 3328 
L 2566 4638 
L 3128 4638 
L 3128 697 
Q 3128 575 3129 462 
Q 3131 350 3134 256 
Q 3138 163 3141 95 
Q 3144 28 3147 0 
L 2609 0 
Q 2603 31 2598 89 
Q 2594 147 2589 222 
Q 2584 297 2581 380 
Q 2578 463 2578 544 
L 2566 544 
z
M 859 1694 
Q 859 1344 903 1094 
Q 947 844 1044 683 
Q 1141 522 1291 447 
Q 1441 372 1656 372 
Q 1878 372 2048 444 
Q 2219 516 2333 677 
Q 2447 838 2506 1097 
Q 2566 1356 2566 1731 
Q 2566 2091 2506 2339 
Q 2447 2588 2331 2741 
Q 2216 2894 2048 2961 
Q 1881 3028 1663 3028 
Q 1456 3028 1306 2956 
Q 1156 2884 1056 2725 
Q 956 2566 907 2311 
Q 859 2056 859 1694 
z
" transform="scale(0.015625)"/>
       <path id="LiberationSans-63" d="M 859 1706 
Q 859 1416 901 1172 
Q 944 928 1044 751 
Q 1144 575 1308 478 
Q 1472 381 1713 381 
Q 2013 381 2214 543 
Q 2416 706 2463 1044 
L 3031 1006 
Q 3003 797 2909 603 
Q 2816 409 2655 262 
Q 2494 116 2262 26 
Q 2031 -63 1728 -63 
Q 1331 -63 1053 71 
Q 775 206 601 442 
Q 428 678 350 998 
Q 272 1319 272 1694 
Q 272 2034 328 2295 
Q 384 2556 486 2751 
Q 588 2947 725 3080 
Q 863 3213 1023 3292 
Q 1184 3372 1362 3408 
Q 1541 3444 1722 3444 
Q 2006 3444 2228 3366 
Q 2450 3288 2611 3152 
Q 2772 3016 2872 2831 
Q 2972 2647 3013 2434 
L 2434 2391 
Q 2391 2672 2212 2837 
Q 2034 3003 1706 3003 
Q 1466 3003 1305 2923 
Q 1144 2844 1044 2683 
Q 944 2522 901 2278 
Q 859 2034 859 1706 
z
" transform="scale(0.015625)"/>
      </defs>
      <use xlink:href="#LiberationSans-43"/>
      <use xlink:href="#LiberationSans-6f" x="72.216797"/>
      <use xlink:href="#LiberationSans-6e" x="127.832031"/>
      <use xlink:href="#LiberationSans-66" x="183.447266"/>
      <use xlink:href="#LiberationSans-69" x="211.230469"/>
      <use xlink:href="#LiberationSans-64" x="233.447266"/>
      <use xlink:href="#LiberationSans-65" x="289.0625"/>
      <use xlink:href="#LiberationSans-6e" x="344.677734"/>
      <use xlink:href="#LiberationSans-63" x="400.292969"/>
      <use xlink:href="#LiberationSans-65" x="450.292969"/>
     </g>
    </g>
   </g>
   <g id="line2d_27">
    <path d="M 47.915 12.805063 
L 61.307 13.195325 
L 74.699 13.525643 
L 88.091 14.072914 
L 101.483 15.313707 
L 114.875 18.431401 
L 128.267 26.856062 
L 141.659 44.700828 
L 155.051 69.135708 
L 168.443 97.504856 
L 181.835 119.807509 
L 195.227 120.148766 
L 208.619 107.194261 
L 222.011 106.895089 
L 235.403 128.585778 
L 248.795 170.507443 
" clip-path="url(#p7600d15463)" style="fill: none; stroke-dasharray: 1,1; stroke-dashoffset: 0; stroke: #393b79"/>
   </g>
   <g id="line2d_28">
    <path d="M 47.915 12.837362 
L 61.307 13.048137 
L 74.699 13.039735 
L 88.091 13.031169 
L 101.483 12.989921 
L 114.875 13.264243 
L 128.267 15.565212 
L 141.659 24.249598 
L 155.051 38.194955 
L 168.443 49.113082 
L 181.835 49.130798 
L 195.227 42.510297 
L 208.619 35.674472 
L 222.011 31.269089 
L 235.403 27.912144 
L 248.795 25.34583 
L 262.187 31.557063 
L 275.579 49.746003 
L 288.971 90.053663 
" clip-path="url(#p7600d15463)" style="fill: none; stroke-dasharray: 1,1; stroke-dashoffset: 0; stroke: #e7ba52"/>
   </g>
   <g id="line2d_29">
    <path d="M 47.915 12.57789 
L 61.307 12.604413 
L 74.699 12.700566 
L 88.091 14.427182 
L 101.483 19.121988 
L 114.875 25.06371 
L 128.267 33.238299 
L 141.659 47.66313 
L 155.051 63.485445 
L 168.443 72.619485 
L 181.835 77.048681 
L 195.227 81.751808 
L 208.619 78.638431 
L 222.011 70.368492 
L 235.403 81.475608 
L 248.795 110.334788 
L 262.187 143.203235 
" clip-path="url(#p7600d15463)" style="fill: none; stroke-dasharray: 1,1; stroke-dashoffset: 0; stroke: #de9ed6"/>
   </g>
   <g id="patch_3">
    <path d="M 47.915 173.52 
L 47.915 7.2 
" style="fill: none"/>
   </g>
   <g id="patch_4">
    <path d="M 382.715 173.52 
L 382.715 7.2 
" style="fill: none"/>
   </g>
   <g id="patch_5">
    <path d="M 47.915 173.52 
L 382.715 173.52 
" style="fill: none"/>
   </g>
   <g id="patch_6">
    <path d="M 47.915 7.2 
L 382.715 7.2 
" style="fill: none"/>
   </g>
   <g id="text_16">
    <!-- PCA 1D -->
    <g style="fill: #393b79" transform="translate(250.56344 179.86179) scale(0.1 -0.1)">
     <defs>
      <path id="LiberationSans-Bold-50" d="M 4050 3009 
Q 4050 2725 3954 2461 
Q 3859 2197 3662 1994 
Q 3466 1791 3162 1670 
Q 2859 1550 2444 1550 
L 1350 1550 
L 1350 0 
L 428 0 
L 428 4403 
L 2406 4403 
Q 2828 4403 3137 4301 
Q 3447 4200 3650 4015 
Q 3853 3831 3951 3575 
Q 4050 3319 4050 3009 
z
M 3122 2994 
Q 3122 3334 2917 3511 
Q 2713 3688 2303 3688 
L 1350 3688 
L 1350 2259 
L 2328 2259 
Q 2534 2259 2682 2312 
Q 2831 2366 2929 2462 
Q 3028 2559 3075 2695 
Q 3122 2831 3122 2994 
z
" transform="scale(0.015625)"/>
      <path id="LiberationSans-Bold-43" d="M 2484 663 
Q 2744 663 2933 736 
Q 3122 809 3261 928 
Q 3400 1047 3492 1197 
Q 3584 1347 3644 1500 
L 4447 1197 
Q 4350 959 4194 731 
Q 4038 503 3803 328 
Q 3569 153 3245 45 
Q 2922 -63 2484 -63 
Q 1913 -63 1494 107 
Q 1075 278 801 583 
Q 528 888 395 1306 
Q 263 1725 263 2222 
Q 263 2738 395 3153 
Q 528 3569 797 3861 
Q 1066 4153 1477 4311 
Q 1888 4469 2444 4469 
Q 2875 4469 3198 4378 
Q 3522 4288 3758 4123 
Q 3994 3959 4148 3736 
Q 4303 3513 4391 3244 
L 3578 3022 
Q 3534 3163 3443 3292 
Q 3353 3422 3214 3522 
Q 3075 3622 2887 3683 
Q 2700 3744 2463 3744 
Q 2128 3744 1887 3636 
Q 1647 3528 1492 3328 
Q 1338 3128 1264 2848 
Q 1191 2569 1191 2222 
Q 1191 1878 1264 1592 
Q 1338 1306 1494 1100 
Q 1650 894 1895 778 
Q 2141 663 2484 663 
z
" transform="scale(0.015625)"/>
      <path id="LiberationSans-Bold-41" d="M 3541 0 
L 3150 1125 
L 1472 1125 
L 1081 0 
L 159 0 
L 1766 4403 
L 2853 4403 
L 4453 0 
L 3541 0 
z
M 2509 3084 
Q 2472 3194 2436 3305 
Q 2400 3416 2373 3508 
Q 2347 3600 2330 3659 
Q 2313 3719 2309 3725 
Q 2306 3716 2290 3656 
Q 2275 3597 2248 3506 
Q 2222 3416 2186 3305 
Q 2150 3194 2113 3084 
L 1678 1819 
L 2944 1819 
L 2509 3084 
z
" transform="scale(0.015625)"/>
      <path id="LiberationSans-Bold-20" transform="scale(0.015625)"/>
      <path id="LiberationSans-Bold-31" d="M 403 0 
L 403 653 
L 1494 653 
L 1494 3656 
L 438 2997 
L 438 3688 
L 1541 4403 
L 2372 4403 
L 2372 653 
L 3381 653 
L 3381 0 
L 403 0 
z
" transform="scale(0.015625)"/>
      <path id="LiberationSans-Bold-44" d="M 4353 2234 
Q 4353 1684 4187 1267 
Q 4022 850 3734 569 
Q 3447 288 3055 144 
Q 2663 0 2209 0 
L 428 0 
L 428 4403 
L 2022 4403 
Q 2534 4403 2962 4275 
Q 3391 4147 3700 3881 
Q 4009 3616 4181 3206 
Q 4353 2797 4353 2234 
z
M 3425 2234 
Q 3425 2619 3320 2894 
Q 3216 3169 3028 3345 
Q 2841 3522 2580 3606 
Q 2319 3691 2003 3691 
L 1350 3691 
L 1350 713 
L 2131 713 
Q 2409 713 2645 809 
Q 2881 906 3054 1098 
Q 3228 1291 3326 1575 
Q 3425 1859 3425 2234 
z
" transform="scale(0.015625)"/>
     </defs>
     <use xlink:href="#LiberationSans-Bold-50"/>
     <use xlink:href="#LiberationSans-Bold-43" x="66.699219"/>
     <use xlink:href="#LiberationSans-Bold-41" x="138.916016"/>
     <use xlink:href="#LiberationSans-Bold-20" x="207.382812"/>
     <use xlink:href="#LiberationSans-Bold-31" x="235.166016"/>
     <use xlink:href="#LiberationSans-Bold-44" x="290.78125"/>
    </g>
   </g>
   <g id="text_17">
    <!-- UMAP 1D -->
    <g style="fill: #e7ba52" transform="translate(292.141356 85.119146) scale(0.1 -0.1)">
     <defs>
      <path id="LiberationSans-Bold-55" d="M 2259 -63 
Q 1847 -63 1503 35 
Q 1159 134 911 342 
Q 663 550 523 875 
Q 384 1200 384 1650 
L 384 4403 
L 1306 4403 
L 1306 1722 
Q 1306 1444 1375 1242 
Q 1444 1041 1572 911 
Q 1700 781 1881 720 
Q 2063 659 2284 659 
Q 2509 659 2698 723 
Q 2888 788 3023 922 
Q 3159 1056 3234 1262 
Q 3309 1469 3309 1753 
L 3309 4403 
L 4231 4403 
L 4231 1697 
Q 4231 1244 4084 912 
Q 3938 581 3675 364 
Q 3413 147 3052 42 
Q 2691 -63 2259 -63 
z
" transform="scale(0.015625)"/>
      <path id="LiberationSans-Bold-4d" d="M 4084 0 
L 4084 2669 
Q 4084 2828 4089 2997 
Q 4094 3166 4100 3306 
Q 4109 3472 4116 3628 
Q 4050 3381 3991 3159 
Q 3966 3066 3937 2966 
Q 3909 2866 3882 2772 
Q 3856 2678 3831 2597 
Q 3806 2516 3788 2456 
L 2994 0 
L 2338 0 
L 1544 2456 
Q 1525 2516 1501 2597 
Q 1478 2678 1451 2772 
Q 1425 2866 1397 2966 
Q 1369 3066 1341 3159 
Q 1278 3381 1209 3628 
Q 1219 3447 1228 3272 
Q 1234 3122 1240 2956 
Q 1247 2791 1247 2669 
L 1247 0 
L 428 0 
L 428 4403 
L 1663 4403 
L 2450 1941 
Q 2481 1844 2517 1703 
Q 2553 1563 2588 1431 
Q 2625 1278 2669 1113 
Q 2713 1275 2753 1425 
Q 2772 1491 2790 1559 
Q 2809 1628 2828 1693 
Q 2847 1759 2865 1818 
Q 2884 1878 2900 1925 
L 3675 4403 
L 4903 4403 
L 4903 0 
L 4084 0 
z
" transform="scale(0.015625)"/>
     </defs>
     <use xlink:href="#LiberationSans-Bold-55"/>
     <use xlink:href="#LiberationSans-Bold-4d" x="72.216797"/>
     <use xlink:href="#LiberationSans-Bold-41" x="155.517578"/>
     <use xlink:href="#LiberationSans-Bold-50" x="227.734375"/>
     <use xlink:href="#LiberationSans-Bold-20" x="292.683594"/>
     <use xlink:href="#LiberationSans-Bold-31" x="320.466797"/>
     <use xlink:href="#LiberationSans-Bold-44" x="376.082031"/>
    </g>
   </g>
   <g id="text_18">
    <!-- Param. UMAP 1D -->
    <g style="fill: #de9ed6" transform="translate(261.61823 152.557582) scale(0.1 -0.1)">
     <defs>
      <path id="LiberationSans-Bold-61" d="M 1228 -63 
Q 984 -63 792 4 
Q 600 72 465 201 
Q 331 331 259 522 
Q 188 713 188 956 
Q 188 1256 292 1461 
Q 397 1666 578 1792 
Q 759 1919 1003 1976 
Q 1247 2034 1522 2038 
L 2250 2050 
L 2250 2222 
Q 2250 2406 2217 2529 
Q 2184 2653 2121 2731 
Q 2059 2809 1967 2842 
Q 1875 2875 1756 2875 
Q 1647 2875 1561 2853 
Q 1475 2831 1412 2776 
Q 1350 2722 1311 2630 
Q 1272 2538 1256 2397 
L 341 2441 
Q 378 2663 478 2845 
Q 578 3028 754 3162 
Q 931 3297 1189 3370 
Q 1447 3444 1794 3444 
Q 2109 3444 2356 3366 
Q 2603 3288 2775 3133 
Q 2947 2978 3037 2753 
Q 3128 2528 3128 2231 
L 3128 1000 
Q 3128 881 3139 787 
Q 3150 694 3179 630 
Q 3209 566 3264 533 
Q 3319 500 3406 500 
Q 3506 500 3600 519 
L 3600 44 
Q 3522 25 3459 9 
Q 3397 -6 3334 -15 
Q 3272 -25 3201 -31 
Q 3131 -38 3038 -38 
Q 2706 -38 2548 125 
Q 2391 288 2359 603 
L 2341 603 
Q 2166 288 1892 112 
Q 1619 -63 1228 -63 
z
M 2250 1566 
L 1800 1559 
Q 1659 1553 1532 1536 
Q 1406 1519 1311 1464 
Q 1216 1409 1159 1306 
Q 1103 1203 1103 1025 
Q 1103 784 1214 667 
Q 1325 550 1509 550 
Q 1678 550 1815 622 
Q 1953 694 2048 811 
Q 2144 928 2197 1081 
Q 2250 1234 2250 1394 
L 2250 1566 
z
" transform="scale(0.015625)"/>
      <path id="LiberationSans-Bold-72" d="M 447 0 
L 447 2588 
Q 447 2697 445 2819 
Q 444 2941 439 3052 
Q 434 3163 431 3252 
Q 428 3341 422 3381 
L 1259 3381 
Q 1266 3344 1272 3251 
Q 1278 3159 1284 3050 
Q 1291 2941 1295 2833 
Q 1300 2725 1300 2659 
L 1313 2659 
Q 1378 2844 1443 2989 
Q 1509 3134 1598 3236 
Q 1688 3338 1813 3392 
Q 1938 3447 2122 3447 
Q 2200 3447 2276 3433 
Q 2353 3419 2394 3400 
L 2394 2666 
Q 2309 2684 2223 2698 
Q 2138 2713 2019 2713 
Q 1691 2713 1508 2447 
Q 1325 2181 1325 1659 
L 1325 0 
L 447 0 
z
" transform="scale(0.015625)"/>
      <path id="LiberationSans-Bold-6d" d="M 2438 0 
L 2438 1897 
Q 2438 2094 2411 2258 
Q 2384 2422 2323 2539 
Q 2263 2656 2164 2722 
Q 2066 2788 1925 2788 
Q 1791 2788 1681 2717 
Q 1572 2647 1492 2517 
Q 1413 2388 1369 2208 
Q 1325 2028 1325 1813 
L 1325 0 
L 447 0 
L 447 2625 
Q 447 2734 445 2850 
Q 444 2966 439 3070 
Q 434 3175 431 3258 
Q 428 3341 422 3381 
L 1259 3381 
Q 1266 3344 1272 3261 
Q 1278 3178 1284 3078 
Q 1291 2978 1295 2878 
Q 1300 2778 1300 2709 
L 1313 2709 
Q 1475 3097 1717 3272 
Q 1959 3447 2297 3447 
Q 2684 3447 2920 3258 
Q 3156 3069 3238 2709 
L 3256 2709 
Q 3347 2919 3451 3059 
Q 3556 3200 3682 3286 
Q 3809 3372 3957 3409 
Q 4106 3447 4281 3447 
Q 4559 3447 4751 3347 
Q 4944 3247 5064 3072 
Q 5184 2897 5239 2659 
Q 5294 2422 5294 2147 
L 5294 0 
L 4422 0 
L 4422 1897 
Q 4422 2094 4395 2258 
Q 4369 2422 4308 2539 
Q 4247 2656 4148 2722 
Q 4050 2788 3909 2788 
Q 3778 2788 3670 2720 
Q 3563 2653 3483 2529 
Q 3403 2406 3359 2234 
Q 3316 2063 3309 1853 
L 3309 0 
L 2438 0 
z
" transform="scale(0.015625)"/>
      <path id="LiberationSans-Bold-2e" d="M 434 0 
L 434 953 
L 1338 953 
L 1338 0 
L 434 0 
z
" transform="scale(0.015625)"/>
     </defs>
     <use xlink:href="#LiberationSans-Bold-50"/>
     <use xlink:href="#LiberationSans-Bold-61" x="66.699219"/>
     <use xlink:href="#LiberationSans-Bold-72" x="122.314453"/>
     <use xlink:href="#LiberationSans-Bold-61" x="161.230469"/>
     <use xlink:href="#LiberationSans-Bold-6d" x="216.845703"/>
     <use xlink:href="#LiberationSans-Bold-2e" x="305.761719"/>
     <use xlink:href="#LiberationSans-Bold-20" x="333.544922"/>
     <use xlink:href="#LiberationSans-Bold-55" x="361.328125"/>
     <use xlink:href="#LiberationSans-Bold-4d" x="433.544922"/>
     <use xlink:href="#LiberationSans-Bold-41" x="516.845703"/>
     <use xlink:href="#LiberationSans-Bold-50" x="589.0625"/>
     <use xlink:href="#LiberationSans-Bold-20" x="654.011719"/>
     <use xlink:href="#LiberationSans-Bold-31" x="681.794922"/>
     <use xlink:href="#LiberationSans-Bold-44" x="737.410156"/>
    </g>
   </g>
  </g>
 </g>
 <defs>
  <clipPath id="p7600d15463">
   <rect x="47.915" y="7.2" width="334.8" height="166.32"/>
  </clipPath>
 </defs>
</svg>
